# Blender v2.79 (sub 0) OBJ File: ''
# www.blender.org
mtllib letter_2.mtl
o Text
v 1.017677 -1.074822 0.000000
v -0.141389 -1.074822 0.000000
v 0.018935 -0.881742 0.000000
v 0.162728 -0.703311 0.000000
v 0.290485 -0.537894 0.000000
v 0.402699 -0.383857 0.000000
v 0.499864 -0.239565 0.000000
v 0.582472 -0.103383 0.000000
v 0.651018 0.026322 0.000000
v 0.705994 0.151185 0.000000
v 0.747894 0.272841 0.000000
v 0.777212 0.392924 0.000000
v 0.794441 0.513069 0.000000
v 0.800074 0.634910 0.000000
v 0.792331 0.771065 0.000000
v 0.769585 0.899265 0.000000
v 0.732559 1.018767 0.000000
v 0.681980 1.128832 0.000000
v 0.618572 1.228721 0.000000
v 0.543059 1.317693 0.000000
v 0.456167 1.395007 0.000000
v 0.358620 1.459924 0.000000
v 0.251142 1.511703 0.000000
v 0.134459 1.549604 0.000000
v 0.009295 1.572888 0.000000
v -0.123625 1.580814 0.000000
v -0.184337 1.578866 0.000000
v -0.244433 1.573001 0.000000
v -0.304035 1.563189 0.000000
v -0.363267 1.549399 0.000000
v -0.422253 1.531599 0.000000
v -0.481115 1.509760 0.000000
v -0.539977 1.483850 0.000000
v -0.598962 1.453838 0.000000
v -0.658194 1.419694 0.000000
v -0.717796 1.381386 0.000000
v -0.777892 1.338884 0.000000
v -0.838604 1.292158 0.000000
v -0.838604 0.745931 0.000000
v -0.777994 0.819272 0.000000
v -0.718248 0.884133 0.000000
v -0.659304 0.940913 0.000000
v -0.601100 0.990014 0.000000
v -0.543575 1.031838 0.000000
v -0.486666 1.066784 0.000000
v -0.430312 1.095254 0.000000
v -0.374452 1.117648 0.000000
v -0.319023 1.134368 0.000000
v -0.263965 1.145815 0.000000
v -0.209215 1.152389 0.000000
v -0.154711 1.154491 0.000000
v -0.081984 1.149667 0.000000
v -0.012912 1.135514 0.000000
v 0.051997 1.112511 0.000000
v 0.112234 1.081134 0.000000
v 0.167290 1.041863 0.000000
v 0.216656 0.995175 0.000000
v 0.259823 0.941548 0.000000
v 0.296283 0.881460 0.000000
v 0.325527 0.815389 0.000000
v 0.347045 0.743814 0.000000
v 0.360329 0.667211 0.000000
v 0.364870 0.586060 0.000000
v 0.363389 0.524793 0.000000
v 0.358949 0.467103 0.000000
v 0.351547 0.412312 0.000000
v 0.341185 0.359741 0.000000
v 0.327863 0.308712 0.000000
v 0.311579 0.258547 0.000000
v 0.292336 0.208567 0.000000
v 0.270131 0.158093 0.000000
v 0.244966 0.106447 0.000000
v 0.216841 0.052951 0.000000
v 0.185755 -0.003074 0.000000
v 0.151708 -0.062306 0.000000
v 0.083253 -0.174381 0.000000
v 0.007442 -0.290188 0.000000
v -0.074567 -0.408832 0.000000
v -0.161619 -0.529419 0.000000
v -0.252557 -0.651054 0.000000
v -0.346223 -0.772844 0.000000
v -0.441463 -0.893893 0.000000
v -0.537119 -1.013308 0.000000
v -0.632034 -1.130194 0.000000
v -0.725054 -1.243657 0.000000
v -0.815020 -1.352803 0.000000
v -0.900776 -1.456737 0.000000
v -0.900776 -1.487823 0.000000
v 1.017677 -1.487823 0.000000
vn 0.0000 -0.0000 1.0000
usemtl None
s off
f 27//1 25//1 26//1
f 28//1 25//1 27//1
f 29//1 25//1 28//1
f 29//1 24//1 25//1
f 30//1 24//1 29//1
f 30//1 23//1 24//1
f 31//1 23//1 30//1
f 32//1 23//1 31//1
f 32//1 22//1 23//1
f 33//1 22//1 32//1
f 34//1 22//1 33//1
f 34//1 21//1 22//1
f 35//1 21//1 34//1
f 36//1 21//1 35//1
f 36//1 20//1 21//1
f 37//1 20//1 36//1
f 38//1 20//1 37//1
f 38//1 19//1 20//1
f 39//1 40//1 38//1
f 40//1 41//1 38//1
f 41//1 42//1 38//1
f 42//1 43//1 38//1
f 43//1 44//1 38//1
f 44//1 45//1 38//1
f 45//1 46//1 38//1
f 46//1 47//1 38//1
f 47//1 48//1 38//1
f 48//1 49//1 38//1
f 49//1 50//1 38//1
f 50//1 19//1 38//1
f 50//1 51//1 19//1
f 51//1 18//1 19//1
f 52//1 18//1 51//1
f 53//1 18//1 52//1
f 54//1 18//1 53//1
f 54//1 17//1 18//1
f 55//1 17//1 54//1
f 56//1 17//1 55//1
f 57//1 17//1 56//1
f 57//1 16//1 17//1
f 58//1 16//1 57//1
f 59//1 16//1 58//1
f 59//1 15//1 16//1
f 60//1 15//1 59//1
f 61//1 15//1 60//1
f 61//1 14//1 15//1
f 62//1 14//1 61//1
f 63//1 14//1 62//1
f 63//1 13//1 14//1
f 64//1 13//1 63//1
f 65//1 13//1 64//1
f 65//1 12//1 13//1
f 66//1 12//1 65//1
f 67//1 12//1 66//1
f 67//1 11//1 12//1
f 68//1 11//1 67//1
f 69//1 11//1 68//1
f 69//1 10//1 11//1
f 70//1 10//1 69//1
f 71//1 10//1 70//1
f 72//1 10//1 71//1
f 72//1 9//1 10//1
f 73//1 9//1 72//1
f 74//1 9//1 73//1
f 74//1 8//1 9//1
f 75//1 8//1 74//1
f 76//1 8//1 75//1
f 76//1 7//1 8//1
f 77//1 7//1 76//1
f 77//1 6//1 7//1
f 78//1 6//1 77//1
f 78//1 5//1 6//1
f 79//1 5//1 78//1
f 80//1 5//1 79//1
f 80//1 4//1 5//1
f 81//1 4//1 80//1
f 81//1 3//1 4//1
f 82//1 3//1 81//1
f 82//1 2//1 3//1
f 83//1 2//1 82//1
f 84//1 2//1 83//1
f 84//1 1//1 2//1
f 84//1 89//1 1//1
f 85//1 89//1 84//1
f 86//1 89//1 85//1
f 87//1 89//1 86//1
f 88//1 89//1 87//1
