# Blender v2.79 (sub 0) OBJ File: ''
# www.blender.org
mtllib letter_3.mtl
o Text
v -0.692056 1.039028 0.000000
v -0.641212 1.061153 0.000000
v -0.592835 1.080949 0.000000
v -0.546617 1.098494 0.000000
v -0.502250 1.113865 0.000000
v -0.459424 1.127139 0.000000
v -0.417832 1.138393 0.000000
v -0.377166 1.147704 0.000000
v -0.337116 1.155149 0.000000
v -0.297374 1.160805 0.000000
v -0.257632 1.164750 0.000000
v -0.217582 1.167060 0.000000
v -0.176915 1.167814 0.000000
v -0.099437 1.164244 0.000000
v -0.027077 1.153689 0.000000
v 0.039854 1.136380 0.000000
v 0.101050 1.112549 0.000000
v 0.156201 1.082427 0.000000
v 0.204999 1.046245 0.000000
v 0.247136 1.004234 0.000000
v 0.282303 0.956626 0.000000
v 0.310192 0.903651 0.000000
v 0.330494 0.845542 0.000000
v 0.342902 0.782530 0.000000
v 0.347106 0.714845 0.000000
v 0.342943 0.648356 0.000000
v 0.330453 0.586677 0.000000
v 0.309637 0.529994 0.000000
v 0.280493 0.478493 0.000000
v 0.243024 0.432357 0.000000
v 0.197227 0.391773 0.000000
v 0.143104 0.356924 0.000000
v 0.080655 0.327997 0.000000
v 0.009878 0.305176 0.000000
v -0.069225 0.288646 0.000000
v -0.156654 0.278592 0.000000
v -0.252410 0.275200 0.000000
v -0.252410 -0.124478 0.000000
v -0.149163 -0.124092 0.000000
v -0.054812 -0.133606 0.000000
v 0.030625 -0.152372 0.000000
v 0.107135 -0.179742 0.000000
v 0.174702 -0.215068 0.000000
v 0.233309 -0.257704 0.000000
v 0.282943 -0.307000 0.000000
v 0.323586 -0.362311 0.000000
v 0.355225 -0.422987 0.000000
v 0.377843 -0.488382 0.000000
v 0.391425 -0.557847 0.000000
v 0.395956 -0.630736 0.000000
v 0.392026 -0.701831 0.000000
v 0.380433 -0.768362 0.000000
v 0.361470 -0.830020 0.000000
v 0.335428 -0.886497 0.000000
v 0.302603 -0.937485 0.000000
v 0.263285 -0.982674 0.000000
v 0.217769 -1.021758 0.000000
v 0.166347 -1.054427 0.000000
v 0.109312 -1.080373 0.000000
v 0.046957 -1.099288 0.000000
v -0.020424 -1.110863 0.000000
v -0.092539 -1.114790 0.000000
v -0.148055 -1.113215 0.000000
v -0.203602 -1.108478 0.000000
v -0.259210 -1.100566 0.000000
v -0.314911 -1.089461 0.000000
v -0.370736 -1.075149 0.000000
v -0.426714 -1.057614 0.000000
v -0.482878 -1.036841 0.000000
v -0.539257 -1.012815 0.000000
v -0.595883 -0.985519 0.000000
v -0.652787 -0.954940 0.000000
v -0.709999 -0.921060 0.000000
v -0.767550 -0.883865 0.000000
v -0.767550 -1.354597 0.000000
v -0.713155 -1.381327 0.000000
v -0.658790 -1.405975 0.000000
v -0.604487 -1.428496 0.000000
v -0.550277 -1.448842 0.000000
v -0.496190 -1.466968 0.000000
v -0.442257 -1.482827 0.000000
v -0.388509 -1.496373 0.000000
v -0.334977 -1.507560 0.000000
v -0.281692 -1.516341 0.000000
v -0.228684 -1.522671 0.000000
v -0.175985 -1.526503 0.000000
v -0.123625 -1.527790 0.000000
v 0.012705 -1.520050 0.000000
v 0.141387 -1.497321 0.000000
v 0.261620 -1.460345 0.000000
v 0.372600 -1.409861 0.000000
v 0.473527 -1.346609 0.000000
v 0.563598 -1.271331 0.000000
v 0.642012 -1.184765 0.000000
v 0.707967 -1.087652 0.000000
v 0.760662 -0.980732 0.000000
v 0.799293 -0.864745 0.000000
v 0.823060 -0.740432 0.000000
v 0.831160 -0.608532 0.000000
v 0.828364 -0.530855 0.000000
v 0.819894 -0.453780 0.000000
v 0.805625 -0.378093 0.000000
v 0.785436 -0.304579 0.000000
v 0.759202 -0.234027 0.000000
v 0.726800 -0.167221 0.000000
v 0.688107 -0.104949 0.000000
v 0.642999 -0.047996 0.000000
v 0.591354 0.002850 0.000000
v 0.533047 0.046804 0.000000
v 0.467955 0.083079 0.000000
v 0.395956 0.110888 0.000000
v 0.461397 0.149530 0.000000
v 0.520177 0.190207 0.000000
v 0.572480 0.233289 0.000000
v 0.618492 0.279147 0.000000
v 0.658398 0.328151 0.000000
v 0.692383 0.380670 0.000000
v 0.720632 0.437076 0.000000
v 0.743330 0.497736 0.000000
v 0.760662 0.563023 0.000000
v 0.772812 0.633306 0.000000
v 0.779967 0.708955 0.000000
v 0.782311 0.790340 0.000000
v 0.775094 0.906645 0.000000
v 0.753815 1.015426 0.000000
v 0.719029 1.116188 0.000000
v 0.671289 1.208439 0.000000
v 0.611153 1.291685 0.000000
v 0.539174 1.365432 0.000000
v 0.455907 1.429187 0.000000
v 0.361909 1.482457 0.000000
v 0.257734 1.524748 0.000000
v 0.143937 1.555566 0.000000
v 0.021073 1.574420 0.000000
v -0.110303 1.580814 0.000000
v -0.165849 1.579976 0.000000
v -0.219392 1.577442 0.000000
v -0.271145 1.573181 0.000000
v -0.321326 1.567162 0.000000
v -0.370150 1.559355 0.000000
v -0.417832 1.549728 0.000000
v -0.464590 1.538250 0.000000
v -0.510638 1.524892 0.000000
v -0.556193 1.509621 0.000000
v -0.601470 1.492408 0.000000
v -0.646686 1.473221 0.000000
v -0.692056 1.452029 0.000000
vn 0.0000 -0.0000 1.0000
usemtl None
s off
f 136//1 134//1 135//1
f 137//1 134//1 136//1
f 138//1 134//1 137//1
f 138//1 133//1 134//1
f 139//1 133//1 138//1
f 140//1 133//1 139//1
f 141//1 133//1 140//1
f 141//1 132//1 133//1
f 142//1 132//1 141//1
f 143//1 132//1 142//1
f 144//1 132//1 143//1
f 144//1 131//1 132//1
f 145//1 131//1 144//1
f 146//1 131//1 145//1
f 146//1 130//1 131//1
f 147//1 130//1 146//1
f 1//1 2//1 147//1
f 2//1 3//1 147//1
f 3//1 4//1 147//1
f 4//1 5//1 147//1
f 5//1 130//1 147//1
f 5//1 6//1 130//1
f 6//1 7//1 130//1
f 7//1 129//1 130//1
f 7//1 8//1 129//1
f 8//1 9//1 129//1
f 9//1 128//1 129//1
f 9//1 10//1 128//1
f 10//1 11//1 128//1
f 11//1 12//1 128//1
f 12//1 127//1 128//1
f 12//1 13//1 127//1
f 13//1 14//1 127//1
f 14//1 126//1 127//1
f 15//1 126//1 14//1
f 16//1 126//1 15//1
f 17//1 126//1 16//1
f 17//1 125//1 126//1
f 18//1 125//1 17//1
f 19//1 125//1 18//1
f 20//1 125//1 19//1
f 20//1 124//1 125//1
f 21//1 124//1 20//1
f 22//1 124//1 21//1
f 22//1 123//1 124//1
f 23//1 123//1 22//1
f 24//1 123//1 23//1
f 24//1 122//1 123//1
f 25//1 122//1 24//1
f 26//1 122//1 25//1
f 26//1 121//1 122//1
f 27//1 121//1 26//1
f 27//1 120//1 121//1
f 28//1 120//1 27//1
f 28//1 119//1 120//1
f 29//1 119//1 28//1
f 29//1 118//1 119//1
f 30//1 118//1 29//1
f 30//1 117//1 118//1
f 31//1 117//1 30//1
f 32//1 117//1 31//1
f 32//1 116//1 117//1
f 33//1 116//1 32//1
f 33//1 115//1 116//1
f 34//1 115//1 33//1
f 35//1 115//1 34//1
f 36//1 115//1 35//1
f 36//1 114//1 115//1
f 37//1 114//1 36//1
f 38//1 114//1 37//1
f 38//1 113//1 114//1
f 38//1 112//1 113//1
f 38//1 111//1 112//1
f 38//1 110//1 111//1
f 38//1 109//1 110//1
f 38//1 108//1 109//1
f 38//1 107//1 108//1
f 38//1 106//1 107//1
f 38//1 39//1 106//1
f 39//1 105//1 106//1
f 40//1 105//1 39//1
f 41//1 105//1 40//1
f 42//1 105//1 41//1
f 42//1 104//1 105//1
f 43//1 104//1 42//1
f 44//1 104//1 43//1
f 44//1 103//1 104//1
f 45//1 103//1 44//1
f 45//1 102//1 103//1
f 46//1 102//1 45//1
f 47//1 102//1 46//1
f 47//1 101//1 102//1
f 48//1 101//1 47//1
f 48//1 100//1 101//1
f 49//1 100//1 48//1
f 49//1 99//1 100//1
f 50//1 99//1 49//1
f 50//1 98//1 99//1
f 51//1 98//1 50//1
f 52//1 98//1 51//1
f 52//1 97//1 98//1
f 53//1 97//1 52//1
f 54//1 97//1 53//1
f 54//1 96//1 97//1
f 75//1 73//1 74//1
f 55//1 96//1 54//1
f 75//1 72//1 73//1
f 56//1 96//1 55//1
f 75//1 71//1 72//1
f 56//1 95//1 96//1
f 57//1 95//1 56//1
f 75//1 70//1 71//1
f 75//1 69//1 70//1
f 58//1 95//1 57//1
f 75//1 68//1 69//1
f 59//1 95//1 58//1
f 75//1 67//1 68//1
f 75//1 66//1 67//1
f 60//1 95//1 59//1
f 60//1 94//1 95//1
f 75//1 65//1 66//1
f 61//1 94//1 60//1
f 75//1 64//1 65//1
f 75//1 63//1 64//1
f 62//1 94//1 61//1
f 75//1 62//1 63//1
f 75//1 94//1 62//1
f 75//1 93//1 94//1
f 75//1 92//1 93//1
f 75//1 91//1 92//1
f 76//1 91//1 75//1
f 77//1 91//1 76//1
f 78//1 91//1 77//1
f 78//1 90//1 91//1
f 79//1 90//1 78//1
f 80//1 90//1 79//1
f 80//1 89//1 90//1
f 81//1 89//1 80//1
f 82//1 89//1 81//1
f 83//1 89//1 82//1
f 83//1 88//1 89//1
f 84//1 88//1 83//1
f 85//1 88//1 84//1
f 85//1 87//1 88//1
f 86//1 87//1 85//1
